<?xml version="1.0" encoding="utf-8"?>
<!-- Generator: Adobe Illustrator 23.0.2, SVG Export Plug-In . SVG Version: 6.00 Build 0)  -->
<svg version="1.1" xmlns="http://www.w3.org/2000/svg" xmlns:xlink="http://www.w3.org/1999/xlink" x="0px" y="0px"
	 viewBox="0 0 512 512" style="enable-background:new 0 0 512 512;" xml:space="preserve">
<style type="text/css">
	.st0{fill:#48494E;}
	.st1{display:none;}
	.st2{display:inline;fill:#48494E;}
</style>
<g id="Layer_1">
	<g>
		<g>
			<path class="st0" d="M346.1,125.5c-52.1,0-259,0-259,0c-3.6,14.5,7.2,28,21.7,28c0,0,190.5,0,237.3,0c32,0,57.2,30.5,48.9,62.7
				c-6.1,23.8-23.8,95.3-23.8,95.3c-5.6,22.5-25.7,38.2-48.9,38.2c0,0-145.5,0-194,0c-8.2,0-16.1-7.7-13.6-17.4
				c6-23.8,23.8-94.8,23.8-94.8c3.5-14.1-7.2-27.9-21.7-27.9h-0.2c0,0-21.6,86-28.8,114.7c-7.2,28.4,13.3,53.4,40.5,53.4
				c48.5,0,194,0,194,0c36.1,0,67.4-24.4,76.1-59.4c0,0,17.8-71.5,23.8-95.3C435.6,169.5,394.1,125.5,346.1,125.5z"/>
		</g>
	</g>
</g>
<g id="Layer_2" class="st1">
	<path class="st2" d="M114.6,224c-12.4,0-61.5,0-61.5,0c-0.9,3.4,1.7,6.6,5.2,6.6c0,0,45.2,0,56.3,0c7.6,0,13.6,7.2,11.6,14.9
		c-1.5,5.6-5.7,22.6-5.7,22.6c-1.3,5.3-6.1,9.1-11.6,9.1c0,0-34.5,0-46.1,0c-1.9,0-3.8-1.8-3.2-4.1c1.4-5.7,5.7-22.5,5.7-22.5
		c0.8-3.4-1.7-6.6-5.2-6.6h0c0,0-5.1,20.4-6.8,27.2c-1.7,6.8,3.2,12.7,9.6,12.7c11.5,0,46.1,0,46.1,0c8.6,0,16-5.8,18.1-14.1
		c0,0,4.2-17,5.7-22.6C135.9,234.4,126,224,114.6,224z M198.1,277.2c-1.1,5.6-2.8,6.6-5.6,6.6h-55.9c-3.4,0-5.4-3.9-3.3-6.6H198.1z
		 M291.2,224c-1.1,5.6-2.8,6.6-5.6,6.6l-46.3,0c-5.5,0-10.3,3.7-11.6,9.1c-1.4,5.7-4.2,17-5.7,22.6c-2,8.1,4.3,14.9,11.6,14.9
		c11,0,44.2,0,44.2,0c3.5,0,6.1,3.3,5.2,6.6c0,0-37.1,0-49.4,0c-12.4,0-20.9-11.4-18.1-23.1c1.4-5.7,4.2-17,5.7-22.6
		c2.1-8.3,9.5-14.1,18.1-14.1H291.2z M354.3,224h-35c-8.6,0-16,5.8-18.1,14.1c-1.4,5.7-4.3,17-5.7,22.6
		c-2.9,11.7,5.6,23.1,18.1,23.1h35c8.6,0,16-5.8,18.1-14.1c1.4-5.7,4.3-17,5.7-22.6C375.2,235.4,366.7,224,354.3,224z M365.9,245.5
		c-1.4,5.7-4.2,17-5.7,22.6c-1.3,5.3-6.1,9.1-11.6,9.1c0,0-26.2,0-35,0c-7.3,0-13.6-6.8-11.6-14.9c1.4-5.7,4.2-17,5.7-22.6
		c1.4-5.7,6.6-9.1,11.4-9.1c9.1,0,26.2,0,35.2,0C361.6,230.7,367.9,237.5,365.9,245.5z M204.8,250.6l-1.7,6.7h-54.9l5-6.7H204.8z
		 M168.2,230.6c2.9-3.9,4.4-6.6,9-6.6h27.4c3.5,0,6,3.3,5.2,6.6L168.2,230.6z M397.3,230.6c-1.5,0-2.9,1-3.2,2.5
		c0,0-2.5,10-3.3,13.3c-0.6,2.3,1.2,4.1,3.4,4.1h45.6c6.5,0,11.2,6,9.7,12.4c-0.8,3.3-2.5,10-3.3,13.3c-0.8,3.4-4.1,7.6-9.7,7.6
		c-15.5,0-61.8,0-61.8,0c1.1-5.6,2.8-6.6,5.6-6.6c14.1,0,56.2,0,56.2,0c1.5,0,2.9-1,3.2-2.5c0,0,2.5-10,3.3-13.3
		c0.5-2.1-1.1-4.1-3.4-4.1h-45.4c-7.3,0-11.4-6.3-9.9-12.4c0.8-3.3,2.5-10,3.3-13.3c1.2-4.9,5.5-7.6,9.7-7.6h61.8
		c-1.1,5.6-2.8,6.6-5.6,6.6C439.4,230.6,411.4,230.6,397.3,230.6z"/>
</g>
</svg>
